<svg width="68" height="68" viewBox="0 0 68 68" fill="none" xmlns="http://www.w3.org/2000/svg">
<path d="M66.8746 32.8747H62.9663C62.3871 17.7827 50.2174 5.61292 35.1254 5.03373V1.12545C35.1254 0.503891 34.6215 0 34 0C33.3784 0 32.8746 0.503891 32.8746 1.12545V5.03373C17.7825 5.61292 5.61292 17.7828 5.03372 32.8747H1.12532C0.50389 32.8747 0 33.3784 0 34C0 34.6216 0.50389 35.1253 1.12545 35.1253H5.03385C5.61305 50.2173 17.7828 62.3871 32.8748 62.9663V66.8745C32.8748 67.4961 33.3787 68 34.0001 68C34.6217 68 35.1256 67.4961 35.1256 66.8745V62.9663C50.2176 62.3871 62.3873 50.2173 62.9665 35.1253H66.8747C67.4963 35.1253 68.0001 34.6214 68.0001 33.9999C67.9999 33.3784 67.496 32.8747 66.8746 32.8747ZM56.8549 35.1253H60.7138C60.1374 48.9762 48.9759 60.1375 35.1253 60.714V56.855C35.1253 56.2333 34.6214 55.7297 34 55.7297C33.3784 55.7297 32.8746 56.2335 32.8746 56.855V60.714C19.0239 60.1375 7.86236 48.9759 7.28582 35.1253H11.1448C11.7664 35.1253 12.2703 34.6214 12.2703 34C12.2703 33.3784 11.7665 32.8747 11.1448 32.8747H7.28582C7.86236 19.0238 19.0239 7.8625 32.8745 7.28596V11.145C32.8745 11.7667 33.3784 12.2704 33.9998 12.2704C34.6214 12.2704 35.1252 11.7667 35.1252 11.145V7.28596C48.976 7.8625 60.1374 19.0241 60.714 32.8747H56.855C56.2334 32.8747 55.7297 33.3786 55.7297 34C55.7295 34.6216 56.2334 35.1253 56.8549 35.1253Z" fill="black"/>
<path d="M37.9401 30.0601C39.3989 30.0601 39.9913 31.833 39.9913 33.2919V37.7337C39.9913 41.0263 37.3221 43.6955 34.0295 43.6955C30.7369 43.6955 28.0677 41.0263 28.0677 37.7337V33.2919C28.0677 31.833 28.66 30.0601 30.1189 30.0601H37.9401Z" fill="#F4A026"/>
<path d="M36.3463 31.5357H31.7126C30.8732 31.5357 30.1927 30.8552 30.1927 30.0158C30.1927 28.2472 31.6264 26.8135 33.3949 26.8135H34.6641C36.4326 26.8135 37.8663 28.2472 37.8663 30.0158C37.8663 30.8552 37.1858 31.5357 36.3463 31.5357Z" fill="#CA463D"/>
<path d="M44.7431 35.5347H40.5521V33.2916C40.5521 33.2466 40.566 33.2015 40.565 33.1563C42.6948 32.9342 43.9167 31.5328 43.9167 29.2334V28.7022C43.9167 28.3762 43.6523 28.1119 43.3264 28.1119C43.0005 28.1119 42.7362 28.3762 42.7362 28.7022V29.2334C42.7362 30.9334 41.9833 31.8375 40.4392 31.9856C40.1705 30.7892 39.515 29.7552 38.4232 29.5197C38.2574 28.2562 37.4752 27.1871 36.3816 26.6321C36.8386 26.1672 37.1285 25.5303 37.1285 24.8285V24.3046C37.1285 23.9786 36.8642 23.7144 36.5383 23.7144C36.2124 23.7144 35.9479 23.9786 35.9479 24.3046V24.8285C35.9479 25.5975 35.3076 26.2083 34.5387 26.2083H33.5204C32.7515 26.2083 32.1112 25.5975 32.1112 24.8285V24.3046C32.1112 23.9786 31.8468 23.7144 31.5209 23.7144C31.195 23.7144 30.9306 23.9786 30.9306 24.3046V24.8285C30.9306 25.5303 31.2205 26.1672 31.6775 26.6321C30.5839 27.1871 29.798 28.2563 29.6322 29.5198C28.5389 29.7555 27.8851 30.7919 27.617 31.9904C26.034 31.8594 25.2639 30.9544 25.2639 29.2334V28.7022C25.2639 28.3762 24.9996 28.1119 24.6736 28.1119C24.3477 28.1119 24.0833 28.3762 24.0833 28.7022V29.2334C24.0833 31.5539 25.2981 32.9596 27.4645 33.162C27.4636 33.2052 27.4479 33.2484 27.4479 33.2916V35.5347H23.2569C22.931 35.5347 22.6667 35.7989 22.6667 36.1249C22.6667 36.4509 22.931 36.7152 23.2569 36.7152H27.4479V37.7334C27.4479 38.2039 27.513 38.6628 27.6077 39.1055C25.3521 39.2583 24.0833 40.6748 24.0833 43.0459V43.5772C24.0833 43.9032 24.3477 44.1674 24.6736 44.1674C24.9995 44.1674 25.2639 43.9032 25.2639 43.5772V43.0459C25.2639 41.1956 26.156 40.2882 27.9894 40.2724C28.9833 42.628 31.3164 44.2855 34.0295 44.2855C36.7422 44.2855 39.0751 42.6284 40.0691 40.2733C41.863 40.308 42.7361 41.2155 42.7361 43.0459V43.5772C42.7361 43.9032 43.0004 44.1674 43.3263 44.1674C43.6523 44.1674 43.9167 43.9032 43.9167 43.5772V43.0459C43.9167 40.6951 42.6407 39.2823 40.4211 39.1093C40.5163 38.6655 40.5521 38.2053 40.5521 37.7334V36.7152H44.7431C45.0691 36.7152 45.3333 36.4509 45.3333 36.1249C45.3333 35.7989 45.069 35.5347 44.7431 35.5347ZM33.395 27.3888H33.5204H34.5386H34.6641C36.1043 27.3888 37.2761 28.5606 37.2761 30.0008C37.2761 30.5135 36.859 30.9305 36.3464 30.9305H31.7127C31.2 30.9305 30.783 30.5135 30.783 30.0008C30.783 28.5606 31.9547 27.3888 33.395 27.3888ZM28.6285 37.7334V33.2916C28.6285 32.3711 28.9361 31.0545 29.7124 30.7223C30.0058 31.5355 30.7997 32.111 31.7127 32.111H33.4097V43.069C30.7387 42.7607 28.6285 40.4856 28.6285 37.7334ZM34.5903 43.0758V32.111H36.3464C37.2594 32.111 38.0238 31.5355 38.3172 30.7223C39.0935 31.0545 39.3715 32.371 39.3715 33.2916V37.7334C39.3715 40.506 37.2896 42.7945 34.5903 43.0758Z" fill="black"/>
</svg>
